<svg id="Capa_1" enable-background="new 0 0 512 512" height="512" viewBox="0 0 512 512" width="512" xmlns="http://www.w3.org/2000/svg"><g><g><path d="m234.682 358.246-67.216-66.561-34.676 34.339c-31.862-8.505-67.332-.457-92.368 24.146-36.848 36.21-37.438 96.26-1.259 133.146 37.183 37.909 98.588 38.243 136.196 1 25.05-24.806 33.265-60.067 24.647-91.731zm-104.392 81.443c-12.444 12.321-32.618 12.321-45.063 0-12.387-12.264-12.387-32.369 0-44.633 12.444-12.321 32.618-12.321 45.063 0 12.387 12.264 12.387 32.369 0 44.633z"/><path d="m344.533 249.464 132.713-131.422c30.07-29.777 30.07-78.056 0-107.833l-8.557-8.474c-2.336-2.313-6.088-2.313-8.424 0l-182.948 181.167z"/></g><path d="m471.577 350.169c-25.036-24.602-60.505-32.651-92.367-24.146l-327.475-324.288c-2.336-2.313-6.088-2.313-8.424 0l-8.557 8.474c-30.07 29.778-30.07 78.056 0 107.833l277.24 274.542c-8.619 31.664-.403 66.925 24.647 91.731 37.609 37.243 99.014 36.909 136.197-1 36.178-36.886 35.587-96.936-1.261-133.146zm-44.805 89.52c-12.444 12.321-32.618 12.321-45.063 0-12.387-12.264-12.387-32.369 0-44.633 12.444-12.321 32.618-12.321 45.063 0 12.387 12.264 12.387 32.369 0 44.633z"/></g></svg>