<svg width="20" height="21" viewBox="0 0 20 21" fill="none" xmlns="http://www.w3.org/2000/svg">
<path d="M17.7778 0.543396H2.22222C1 0.543396 0 1.5434 0 2.76562V18.3212C0 19.5445 1 20.5434 2.22222 20.5434H17.7778C19 20.5434 20 19.5445 20 18.3212V2.76562C20 1.5434 19 0.543396 17.7778 0.543396ZM9.98222 16.6801C11.6143 16.6798 13.1794 16.0312 14.3334 14.8771C15.4873 13.7229 16.1356 12.1577 16.1356 10.5256C16.1356 10.1501 16.0878 9.78784 16.0211 9.43229H17.7778V17.4501C17.7778 17.551 17.7578 17.651 17.7191 17.7442C17.6804 17.8375 17.6236 17.9221 17.552 17.9934C17.4805 18.0646 17.3956 18.121 17.3022 18.1593C17.2088 18.1977 17.1087 18.2172 17.0078 18.2167H2.99222C2.89126 18.2172 2.79121 18.1977 2.69781 18.1593C2.60441 18.121 2.5195 18.0646 2.44795 17.9934C2.37641 17.9221 2.31964 17.8375 2.2809 17.7442C2.24216 17.651 2.22222 17.551 2.22222 17.4501V9.43229H3.94333C3.87556 9.78784 3.82778 10.1501 3.82778 10.5256C3.82807 12.1578 4.47658 13.723 5.6307 14.8771C6.78482 16.0313 8.35005 16.6798 9.98222 16.6801ZM6.13667 10.5256C6.13667 10.0206 6.23614 9.52055 6.42939 9.05399C6.62265 8.58742 6.90591 8.16349 7.263 7.8064C7.6201 7.44931 8.04403 7.16605 8.51059 6.97279C8.97716 6.77953 9.47722 6.68006 9.98222 6.68006C10.4872 6.68006 10.9873 6.77953 11.4539 6.97279C11.9204 7.16605 12.3443 7.44931 12.7014 7.8064C13.0585 8.16349 13.3418 8.58742 13.5351 9.05399C13.7283 9.52055 13.8278 10.0206 13.8278 10.5256C13.8278 11.5455 13.4226 12.5237 12.7014 13.2448C11.9803 13.966 11.0021 14.3712 9.98222 14.3712C8.96232 14.3712 7.98419 13.966 7.263 13.2448C6.54182 12.5237 6.13667 11.5455 6.13667 10.5256ZM17.0078 6.09895H15.2133C15.0096 6.09837 14.8144 6.01717 14.6703 5.8731C14.5262 5.72903 14.445 5.5338 14.4444 5.33006V3.5334C14.4444 3.10895 14.7889 2.76562 15.2122 2.76562H17.0067C17.4333 2.76562 17.7778 3.10895 17.7778 3.5334V5.32895C17.7778 5.75229 17.4333 6.09895 17.0078 6.09895Z" fill="white"/>
</svg>
