<svg width="16" height="28" viewBox="0 0 16 28" fill="none" xmlns="http://www.w3.org/2000/svg">
<path d="M13.3333 0H2.66667C1.95942 0 1.28115 0.286639 0.781048 0.796861C0.280951 1.30708 0 1.99909 0 2.72065V24.4859C0 25.2075 0.280951 25.8995 0.781048 26.4097C1.28115 26.9199 1.95942 27.2065 2.66667 27.2065H13.3333C14.0406 27.2065 14.7189 26.9199 15.219 26.4097C15.719 25.8995 16 25.2075 16 24.4859V2.72065C16 1.99909 15.719 1.30708 15.219 0.796861C14.7189 0.286639 14.0406 0 13.3333 0ZM9.33333 25.8462H6.66667V24.4859H9.33333V25.8462ZM13.3333 23.1256H2.66667V4.08098H13.3333V23.1256Z" fill="white"/>
</svg>
